<svg width="16" height="16" viewBox="0 0 16 16" fill="none" xmlns="http://www.w3.org/2000/svg">
<path d="M0.5 8C0.5 3.86749 3.86749 0.5 8 0.5C12.1325 0.5 15.5 3.86749 15.5 8C15.5 12.1325 12.1325 15.5 8 15.5C3.86749 15.5 0.5 12.1325 0.5 8Z" stroke="#5b72b7"/>
<path d="M5 6.6536C5 5.24337 6.27748 4.08304 7.84277 4.00271C8.06494 3.99379 8.2972 4.00718 8.52947 4.03842C9.98872 4.26156 11.044 5.43526 10.9986 6.73393C10.9632 7.83177 10.1352 8.64846 9.17074 9.01887C8.82233 9.15722 8.61026 9.26878 8.53452 9.34019C8.45373 9.41606 8.41334 9.45622 8.41334 9.71506H7.12071C7.12071 9.26432 7.28734 8.84036 7.59535 8.55474C7.90161 8.27074 8.26279 8.12794 8.64413 7.97716L8.65066 7.97458C9.26667 7.73359 9.68576 7.33194 9.70596 6.69823C9.73121 5.97526 9.10509 5.28799 8.31235 5.1675C7.2015 4.99791 6.29262 5.72534 6.29262 6.6536H5Z" fill="#5b72b7"/>
<path d="M7.12071 12V10.8575H8.41334V12H7.12071Z" fill="#5b72b7"/>
</svg>
