<svg width="19" height="18" viewBox="0 0 19 18" fill="none" xmlns="http://www.w3.org/2000/svg">
<path d="M18.2342 15.1776C14.6601 11.8462 14.4645 6.22876 17.7958 2.65468C18.2838 2.13206 18.254 1.31223 17.7314 0.826765C17.6992 0.797043 17.6645 0.767322 17.6299 0.740076C17.6001 0.707877 17.5704 0.675677 17.5382 0.643478C17.0156 0.15554 16.1958 0.185262 15.7103 0.707876C12.379 4.28196 6.76148 4.47763 3.18739 1.14628C2.66478 0.65834 1.84494 0.688061 1.35948 1.21068C1.35205 1.22058 1.34462 1.22801 1.33719 1.23792C1.32976 1.24535 1.31985 1.25278 1.31242 1.26269C0.824486 1.7853 0.854207 2.60514 1.37682 3.0906C4.9509 6.42195 5.14658 12.0394 1.81522 15.6135C1.32728 16.1361 1.35701 16.956 1.87962 17.4414C1.91182 17.4711 1.94649 17.5009 1.98117 17.5281C2.01089 17.5603 2.04062 17.5925 2.07281 17.6247C2.59543 18.1127 3.41526 18.0829 3.90072 17.5603C7.23208 13.9862 12.8496 13.7906 16.4236 17.1219C16.9463 17.6099 17.7661 17.5801 18.2516 17.0575C18.259 17.0476 18.2664 17.0402 18.2738 17.0303C18.2813 17.0228 18.2912 17.0154 18.2986 17.0055C18.7841 16.4854 18.7568 15.6655 18.2342 15.1776ZM9.74607 12.6413C9.03274 11.123 7.84138 9.86972 6.36271 9.08208C7.86367 8.33903 9.09466 7.12538 9.85753 5.63184C10.5709 7.15015 11.7622 8.40343 13.2409 9.19106C11.7399 9.93412 10.5089 11.1478 9.74607 12.6413Z" fill="url(#paint0_linear)"/>
<defs>
<linearGradient id="paint0_linear" x1="9.27303" y1="21.0122" x2="10.3064" y2="-1.82811" gradientUnits="userSpaceOnUse">
<stop offset="0.2057" stop-color="#B191C3"/>
<stop offset="1" stop-color="#3C5FAC"/>
</linearGradient>
</defs>
</svg>
