<svg width="24" height="21" viewBox="0 0 24 21" fill="none" xmlns="http://www.w3.org/2000/svg">
<path d="M12.0031 0.0078125C11.1337 0.0078125 10.2643 0.420607 9.77021 1.2462L0.357218 16.9762C-0.6435 18.6399 0.638669 20.8102 2.58381 20.8102H21.4161C23.3675 20.8102 24.6496 18.6399 23.6552 16.9762L14.2359 1.2462C13.7418 0.420607 12.8724 0.0078125 12.0031 0.0078125ZM12.0031 1.58394C12.3345 1.58394 12.666 1.74656 12.8662 2.07179L22.2792 17.7956C22.6732 18.4523 22.2354 19.2091 21.4161 19.2091H2.58381C1.77073 19.2091 1.33292 18.4523 1.72695 17.7956L11.1399 2.07179C11.3401 1.74656 11.6716 1.58394 12.0031 1.58394ZM11.19 6.39989V14.4056H12.7911V6.39989H11.19ZM11.19 16.0068V17.6079H12.7911V16.0068H11.19Z" fill="#6F749A"/>
</svg>
