<svg width="21" height="16" viewBox="0 0 21 16" fill="none" xmlns="http://www.w3.org/2000/svg">
<path d="M2.10104 8.39969C1.7691 8.06775 1.2309 8.06775 0.898959 8.39969C0.567014 8.73164 0.567014 9.26983 0.898959 9.60177L2.10104 8.39969ZM7 14.5007L6.39896 15.1018C6.73091 15.4337 7.26909 15.4337 7.60104 15.1018L7 14.5007ZM20.601 2.10177C20.933 1.76983 20.933 1.23164 20.601 0.899692C20.2691 0.567746 19.7309 0.567746 19.399 0.899692L20.601 2.10177ZM0.898959 9.60177L6.39896 15.1018L7.60104 13.8997L2.10104 8.39969L0.898959 9.60177ZM7.60104 15.1018L20.601 2.10177L19.399 0.899692L6.39896 13.8997L7.60104 15.1018Z" fill="#6F749A"/>
</svg>

