<svg width="24" height="17" viewBox="0 0 24 17" fill="none" xmlns="http://www.w3.org/2000/svg">
<path d="M11.9999 -0.000854492C9.25165 -0.000854492 6.86085 1.90874 6.19869 4.53297C4.58139 4.77314 3.29809 6.06182 3.04612 7.73711C1.25302 8.34631 -0.000976562 10.0567 -0.000976562 11.9956C-0.000976562 14.4734 2.02065 16.4943 4.49935 16.4943H19.5004C21.9791 16.4943 24.0008 14.4734 24.0008 11.9956C24.0008 10.6484 23.4031 9.38897 22.3717 8.53961C22.4596 8.19401 22.5007 7.84255 22.5007 7.49695C22.5007 4.76728 20.0864 2.54137 17.2386 3.06856C16.1838 1.18825 14.1973 -0.000854492 11.9999 -0.000854492ZM11.9999 1.49871C13.8106 1.49871 15.4396 2.57651 16.1486 4.24009L16.4123 4.88443L17.0686 4.66184C17.4085 4.55054 17.7132 4.49783 18.0003 4.49783C19.6528 4.49783 21.0006 5.84509 21.0006 7.49695C21.0006 7.84841 20.9302 8.20572 20.7896 8.56304L20.5786 9.13709L21.0943 9.46512C21.9733 10.0216 22.5007 10.9647 22.5007 11.9956C22.5007 13.6475 21.1529 14.9947 19.5004 14.9947H4.49935C2.84689 14.9947 1.49913 13.6475 1.49913 11.9956C1.49913 10.5722 2.51288 9.33625 3.90165 9.05508L4.51693 8.87935L4.49935 8.24673C4.49935 7.0049 5.50724 5.99739 6.67334 5.99153L6.82569 6.0091H7.47613L7.56989 5.3589C7.88046 3.15642 9.78489 1.49871 11.9999 1.49871ZM9.74973 7.49695C9.33369 7.49695 8.99968 7.83083 8.99968 8.24673C8.99968 8.66262 9.33369 8.99651 9.74973 8.99651C10.1658 8.99651 10.4998 8.66262 10.4998 8.24673C10.4998 7.83083 10.1658 7.49695 9.74973 7.49695ZM14.2501 7.49695C13.834 7.49695 13.5 7.83083 13.5 8.24673C13.5 8.66262 13.834 8.99651 14.2501 8.99651C14.6661 8.99651 15.0001 8.66262 15.0001 8.24673C15.0001 7.83083 14.6661 7.49695 14.2501 7.49695ZM11.9999 10.4961C9.36885 10.4961 7.71052 12.2299 7.71052 12.2299C7.49957 12.4174 7.41167 12.7044 7.48785 12.9739C7.55817 13.2492 7.77498 13.46 8.05039 13.5186C8.3258 13.5772 8.60707 13.4776 8.78873 13.2609C8.78873 13.2609 10.0193 11.9956 11.9999 11.9956C13.9805 11.9956 15.2111 13.2609 15.2111 13.2609C15.3927 13.4776 15.674 13.5772 15.9494 13.5186C16.2248 13.46 16.4416 13.2492 16.5119 12.9739C16.5881 12.7044 16.5002 12.4174 16.2893 12.2299C16.2893 12.2299 14.6309 10.4961 11.9999 10.4961Z" fill="#6F749A"/>
</svg>
