<svg width="13" height="16" viewBox="0 0 13 16" fill="none" xmlns="http://www.w3.org/2000/svg">
<path d="M6.75 0.5C4.68457 0.5 3 2.18457 3 4.25C3 6.31543 4.68457 8 6.75 8C8.81543 8 10.5 6.31543 10.5 4.25C10.5 2.18457 8.81543 0.5 6.75 0.5ZM6.75 8C3.30762 8 0.5 10.8076 0.5 14.25H1.75C1.75 11.4814 3.98145 9.25 6.75 9.25C9.51856 9.25 11.75 11.4814 11.75 14.25H13C13 10.8076 10.1924 8 6.75 8ZM6.75 1.75C8.13672 1.75 9.25 2.86328 9.25 4.25C9.25 5.63672 8.13672 6.75 6.75 6.75C5.36328 6.75 4.25 5.63672 4.25 4.25C4.25 2.86328 5.36328 1.75 6.75 1.75ZM0.5 14.25H13V15.5H0.5V14.25Z" fill="#B9BDCC"/>
</svg>
