<?xml version="1.0" encoding="iso-8859-1"?>
<!-- Generator: Adobe Illustrator 19.0.0, SVG Export Plug-In . SVG Version: 6.00 Build 0)  -->
<svg version="1.1" id="Layer_1" xmlns="http://www.w3.org/2000/svg" xmlns:xlink="http://www.w3.org/1999/xlink" x="0px" y="0px"
	 viewBox="0 0 512 512" style="enable-background:new 0 0 512 512;" xml:space="preserve">
<rect x="40.421" y="207.495" style="fill:#EDEDED;" width="43.116" height="215.579"/>
<rect x="428.463" y="207.495" style="fill:#DBDBDB;" width="43.116" height="215.579"/>
<polyline style="fill:#F8F8F9;" points="222.467,239.832 8.084,239.832 8.084,88.926 503.916,88.926 503.916,239.832 
	289.534,239.832 "/>
<polyline style="fill:#EDEDED;" points="363.191,239.832 256,239.832 256,88.926 503.916,88.926 503.916,239.832 396.726,239.832 
	"/>
<g>
	<polygon style="fill:#E07188;" points="229.053,239.832 72.758,88.926 8.084,88.926 164.379,239.832 	"/>
	<polygon style="fill:#E07188;" points="336.842,239.832 180.547,88.926 115.874,88.926 272.168,239.832 	"/>
	<polygon style="fill:#E07188;" points="450.021,239.832 293.726,88.926 229.053,88.926 385.347,239.832 	"/>
	<polygon style="fill:#E07188;" points="8.084,135.759 8.084,198.202 51.2,239.832 115.874,239.832 	"/>
</g>
<g>
	<polygon style="fill:#E02753;" points="503.916,88.926 455.41,88.926 503.916,135.759 	"/>
	<polygon style="fill:#E02753;" points="503.916,182.591 406.905,88.926 342.232,88.926 498.526,239.832 503.916,239.832 	"/>
	<polygon style="fill:#E02753;" points="272.168,239.832 336.842,239.832 256,161.777 256,224.221 	"/>
	<polygon style="fill:#E02753;" points="450.021,239.832 293.726,88.926 256,88.926 256,114.945 385.347,239.832 	"/>
</g>
<polygon style="fill:#F8F8F9;" points="277.558,196.716 234.442,196.716 180.547,401.516 331.453,401.516 "/>
<polygon style="fill:#EDEDED;" points="277.558,196.716 256,196.716 256,401.516 331.453,401.516 "/>
<g>
	<polygon style="fill:#EFC27B;" points="300.251,282.947 277.558,196.716 234.442,196.716 211.749,282.947 	"/>
	<polygon style="fill:#EFC27B;" points="311.597,326.063 200.403,326.063 180.547,401.516 331.453,401.516 	"/>
</g>
<g>
	<polygon style="fill:#ECB45C;" points="311.597,326.063 256,326.063 256,401.516 331.453,401.516 	"/>
	<polygon style="fill:#ECB45C;" points="277.558,196.716 256,196.716 256,282.947 300.251,282.947 	"/>
	<rect x="169.768" y="390.737" style="fill:#ECB45C;" width="172.463" height="32.337"/>
</g>
<rect x="256" y="390.737" style="fill:#E9A440;" width="86.232" height="32.337"/>
<path style="fill:#2E2D31;" d="M503.916,80.842H8.084C3.618,80.842,0,84.461,0,88.926v150.905c0,4.466,3.618,8.084,8.084,8.084
	h24.253v167.074H18.863c-4.466,0-8.084,3.618-8.084,8.084s3.618,8.084,8.084,8.084h474.274c4.466,0,8.084-3.618,8.084-8.084
	s-3.618-8.084-8.084-8.084h-13.474V247.916h24.253c4.466,0,8.084-3.618,8.084-8.084V88.926
	C512,84.461,508.382,80.842,503.916,80.842z M48.505,247.916h26.947v167.074H48.505V247.916z M91.621,247.916h120.208
	l-37.428,134.737h-4.633c-4.466,0-8.084,3.618-8.084,8.084v24.253H91.621V247.916z M204.657,334.147h102.687l13.474,48.505H191.183
	L204.657,334.147z M209.147,317.979l7.486-26.947h78.733l7.486,26.947H209.147z M290.875,274.863h-69.752l19.462-70.063h30.828
	L290.875,274.863z M177.853,414.989v-16.168h2.695h150.905h2.695v16.168H177.853z M350.316,414.989v-24.253
	c0-4.466-3.618-8.084-8.084-8.084h-4.634L300.17,247.916h120.209v167.074H350.316z M463.495,414.989h-26.947V247.916h26.947V414.989
	z M495.832,231.747H295.681l-10.333-37.196c-0.972-3.499-4.157-5.92-7.79-5.92h-43.116c-3.631,0-6.817,2.421-7.79,5.92
	l-10.332,37.196H16.168V97.011h479.663V231.747z"/>
<g>
</g>
<g>
</g>
<g>
</g>
<g>
</g>
<g>
</g>
<g>
</g>
<g>
</g>
<g>
</g>
<g>
</g>
<g>
</g>
<g>
</g>
<g>
</g>
<g>
</g>
<g>
</g>
<g>
</g>
</svg>
