<?xml version="1.0" encoding="UTF-8" standalone="no"?>
<svg
   xmlns:dc="http://purl.org/dc/elements/1.1/"
   xmlns:cc="http://creativecommons.org/ns#"
   xmlns:rdf="http://www.w3.org/1999/02/22-rdf-syntax-ns#"
   xmlns:svg="http://www.w3.org/2000/svg"
   xmlns="http://www.w3.org/2000/svg"
   xmlns:sodipodi="http://sodipodi.sourceforge.net/DTD/sodipodi-0.dtd"
   xmlns:inkscape="http://www.inkscape.org/namespaces/inkscape"
   width="156.21529mm"
   height="37.919479mm"
   viewBox="0 0 156.21529 37.919479"
   version="1.1"
   id="svg8"
   inkscape:version="1.0.1 (3bc2e813f5, 2020-09-07)"
   sodipodi:docname="google-billboard.svg">
  <defs
     id="defs2">
    <linearGradient
       id="paint0_linear"
       x1="20.273001"
       y1="33.012199"
       x2="21.3064"
       y2="10.1719"
       gradientUnits="userSpaceOnUse"
       gradientTransform="matrix(0.66201113,0,0,0.66201113,155.90852,129.52715)">
      <stop
         offset="0.2057"
         stop-color="#B191C3"
         id="stop1237" />
      <stop
         offset="1"
         stop-color="#3C5FAC"
         id="stop1239" />
    </linearGradient>
  </defs>
  <sodipodi:namedview
     id="base"
     pagecolor="#ffffff"
     bordercolor="#666666"
     borderopacity="1.0"
     inkscape:pageopacity="0.0"
     inkscape:pageshadow="2"
     inkscape:zoom="1.6327361"
     inkscape:cx="227.7616"
     inkscape:cy="191.90073"
     inkscape:document-units="mm"
     inkscape:current-layer="layer1"
     inkscape:document-rotation="0"
     showgrid="false"
     inkscape:window-width="1920"
     inkscape:window-height="1017"
     inkscape:window-x="0"
     inkscape:window-y="0"
     inkscape:window-maximized="1"
     fit-margin-top="0"
     fit-margin-left="0"
     fit-margin-right="0"
     fit-margin-bottom="0" />
  <metadata
     id="metadata5">
    <rdf:RDF>
      <cc:Work
         rdf:about="">
        <dc:format>image/svg+xml</dc:format>
        <dc:type
           rdf:resource="http://purl.org/dc/dcmitype/StillImage" />
        <dc:title></dc:title>
      </cc:Work>
    </rdf:RDF>
  </metadata>
  <g
     inkscape:label="Capa 1"
     inkscape:groupmode="layer"
     id="layer1"
     transform="translate(-33.220055,-124.55833)">
    <g
       id="g1104"
       transform="matrix(0.89550373,0,0,0.89550373,47.821748,131.78823)" />
    <g
       id="g1106"
       transform="matrix(0.89550373,0,0,0.89550373,47.821748,131.78823)" />
    <g
       id="g1108"
       transform="matrix(0.89550373,0,0,0.89550373,47.821748,131.78823)" />
    <g
       id="g1110"
       transform="matrix(0.89550373,0,0,0.89550373,47.821748,131.78823)" />
    <g
       id="g1112"
       transform="matrix(0.89550373,0,0,0.89550373,47.821748,131.78823)" />
    <g
       id="g1114"
       transform="matrix(0.89550373,0,0,0.89550373,47.821748,131.78823)" />
    <g
       id="g1116"
       transform="matrix(0.89550373,0,0,0.89550373,47.821748,131.78823)" />
    <g
       id="g1118"
       transform="matrix(0.89550373,0,0,0.89550373,47.821748,131.78823)" />
    <g
       id="g1120"
       transform="matrix(0.89550373,0,0,0.89550373,47.821748,131.78823)" />
    <g
       id="g1122"
       transform="matrix(0.89550373,0,0,0.89550373,47.821748,131.78823)" />
    <g
       id="g1124"
       transform="matrix(0.89550373,0,0,0.89550373,47.821748,131.78823)" />
    <g
       id="g1126"
       transform="matrix(0.89550373,0,0,0.89550373,47.821748,131.78823)" />
    <g
       id="g1128"
       transform="matrix(0.89550373,0,0,0.89550373,47.821748,131.78823)" />
    <g
       id="g1130"
       transform="matrix(0.89550373,0,0,0.89550373,47.821748,131.78823)" />
    <g
       id="g1132"
       transform="matrix(0.89550373,0,0,0.89550373,47.821748,131.78823)" />
    <g
       id="g1948">
      <rect
         style="fill:#f1f1f1;fill-opacity:1;stroke:none;stroke-width:3.43958"
         id="rect1328"
         width="156.21529"
         height="37.919479"
         x="33.220055"
         y="124.55833"
         ry="1.6204906" />
      <g
         id="g7959"
         transform="matrix(1.0921028,0,0,1.0921028,97.618585,-987.74791)">
        <path
           d="m 15.48437,1023.3587 c -2.59049,2.6168 -5.88553,4.4244 -9.48437,5.2031 v 9.5328 c 0,5.1329 3.79349,7.058 9.48242,10.2675 h 0.0156 c 5.68893,-3.2095 9.48242,-5.1347 9.48242,-10.2675 v -9.5368 c -3.60258,-0.7755 -6.90191,-2.5818 -9.49609,-5.1992 z"
           id="path5230"
           style="fill:#518ff5;fill-opacity:1;stroke:none;stroke-width:1;stroke-linecap:round;stroke-linejoin:round" />
        <path
           d="m 20.990225,1035.8621 a 5.5,5.5 0 0 1 -5.5,5.5 5.5,5.5 0 0 1 -5.5000002,-5.5 5.5,5.5 0 0 1 5.5000002,-5.5 5.5,5.5 0 0 1 5.5,5.5 z"
           id="circle5232"
           style="fill:#5f7987;fill-opacity:1;stroke:none;stroke-width:1;stroke-linecap:round;stroke-linejoin:round" />
        <path
           d="m 11.99022,1039.8621 c 2e-5,-1.9243 1.55347,-3.4876 3.47772,-3.4999 1.92428,-0.012 3.49753,1.5312 3.52202,3.4554 l -3.49987,1.5226 z"
           id="path5234"
           style="fill:#f9f9f9;fill-opacity:1;stroke:none;stroke-width:1;stroke-linecap:round;stroke-linejoin:round" />
        <path
           d="m 16.990229,1034.8621 a 1.5000038,1.5000038 0 0 1 -1.500004,1.5 1.5000038,1.5000038 0 0 1 -1.500004,-1.5 1.5000038,1.5000038 0 0 1 1.500004,-1.5 1.5000038,1.5000038 0 0 1 1.500004,1.5 z"
           id="circle5236"
           style="fill:#f9f9f9;fill-opacity:1;stroke:none;stroke-width:1;stroke-linecap:round;stroke-linejoin:round" />
        <path
           d="m 15.49114,1036.3614 a 3.5,3.5 0 0 0 -3.5,3.5 3.5,3.5 0 0 0 0.008,0.2481 5.5,5.5 0 0 0 3.49219,1.2519 5.5,5.5 0 0 0 3.48828,-1.2519 3.5,3.5 0 0 0 0.0117,-0.2481 3.5,3.5 0 0 0 -3.5,-3.5 z"
           id="path5774"
           style="opacity:1;fill:#f9f9f9;fill-opacity:1;stroke:none;stroke-width:2;stroke-linecap:butt;stroke-linejoin:miter;stroke-opacity:1" />
      </g>
      <ellipse
         style="fill:#ffffff;fill-opacity:1;stroke:none;stroke-width:2.81316"
         id="ellipse1271"
         cx="54.334457"
         cy="143.51808"
         rx="15.633529"
         ry="15.381804" />
      <g
         id="g1279"
         transform="translate(-7.8535245,-62.053275)">
        <ellipse
           style="fill:#ffffff;fill-opacity:1;stroke:none;stroke-width:2.81316"
           id="path1269"
           cx="85.977394"
           cy="205.57135"
           rx="15.633529"
           ry="15.381804" />
        <g
           id="g1206"
           transform="matrix(0.03710762,0,0,0.03710762,76.079865,195.47286)">
          <path
             d="m 533.5,278.4 c 0,-18.5 -1.5,-37.1 -4.7,-55.3 H 272.1 v 104.8 h 147 c -6.1,33.8 -25.7,63.7 -54.4,82.7 v 68 h 87.7 c 51.5,-47.4 81.1,-117.4 81.1,-200.2 z"
             fill="#4285f4"
             id="path1186" />
          <path
             d="m 272.1,544.3 c 73.4,0 135.3,-24.1 180.4,-65.7 l -87.7,-68 c -24.4,16.6 -55.9,26 -92.6,26 -71,0 -131.2,-47.9 -152.8,-112.3 H 28.9 v 70.1 c 46.2,91.9 140.3,149.9 243.2,149.9 z"
             fill="#34a853"
             id="path1188" />
          <path
             d="m 119.3,324.3 c -11.4,-33.8 -11.4,-70.4 0,-104.2 V 150 H 28.9 c -38.6,76.9 -38.6,167.5 0,244.4 z"
             fill="#fbbc04"
             id="path1190" />
          <path
             d="m 272.1,107.7 c 38.8,-0.6 76.3,14 104.4,40.8 L 454.2,70.8 C 405,24.6 339.7,-0.8 272.1,0 169.2,0 75.1,58 28.9,150 l 90.4,70.1 c 21.5,-64.5 81.8,-112.4 152.8,-112.4 z"
             fill="#ea4335"
             id="path1192" />
        </g>
      </g>
      <g
         id="g1102"
         transform="matrix(0.89550373,0,0,0.89550373,43.588414,132.77203)">
        <path
           id="XMLID_1454_"
           style="fill:#ffc107"
           d="M 15.327239,14.5 H 24 L 16,2 H 8 Z" />
        <path
           id="XMLID_1306_"
           style="fill:#2196f3"
           d="M 8.5,14.5 4,22 h 16 l 4,-7.5 z" />
        <linearGradient
           gradientUnits="userSpaceOnUse"
           id="SVGID_1_"
           x1="5.5"
           x2="10.794118"
           y1="17.5"
           y2="22.794117">
          <stop
             offset="0"
             style="stop-color:#000000;stop-opacity:0.1"
             id="stop1062" />
          <stop
             offset="1"
             style="stop-color:#000000;stop-opacity:0"
             id="stop1064" />
        </linearGradient>
        <path
           id="polygon1067"
           style="fill:url(#SVGID_1_)"
           d="M 8.5,14.5 11.588235,22 H 4 Z" />
        <path
           id="XMLID_1451_"
           style="fill:#00b060"
           d="M 12.039781,8.891717 8,2 0,14.5 4,22 Z" />
        <linearGradient
           gradientUnits="userSpaceOnUse"
           id="SVGID_2_"
           x1="6.4544849"
           x2="12.319295"
           y1="3.5455151"
           y2="9.4103251">
          <stop
             offset="0"
             style="stop-color:#000000;stop-opacity:0.1"
             id="stop1070" />
          <stop
             offset="1"
             style="stop-color:#000000;stop-opacity:0"
             id="stop1072" />
        </linearGradient>
        <path
           id="polygon1075"
           style="fill:url(#SVGID_2_)"
           d="m 8,2 2.77378,8.95584 1.266001,-2.064123 z" />
        <linearGradient
           gradientUnits="userSpaceOnUse"
           id="XMLID_20_"
           x1="10.895122"
           x2="19.395123"
           y1="1.4478785"
           y2="13.572879">
          <stop
             offset="0"
             style="stop-color:#FFFFFF;stop-opacity:0.3"
             id="stop1077" />
          <stop
             offset="1"
             style="stop-color:#FFFFFF;stop-opacity:0"
             id="stop1079" />
        </linearGradient>
        <path
           id="XMLID_1308_"
           style="fill:url(#XMLID_20_)"
           d="M 15.327239,14.5 H 24 L 16,2 H 8 Z" />
        <linearGradient
           gradientUnits="userSpaceOnUse"
           id="XMLID_21_"
           x1="7.2223954"
           x2="20.777605"
           y1="15.089551"
           y2="21.410448">
          <stop
             offset="0"
             style="stop-color:#FFFFFF;stop-opacity:0"
             id="stop1083" />
          <stop
             offset="1"
             style="stop-color:#FFFFFF;stop-opacity:0.2"
             id="stop1085" />
        </linearGradient>
        <path
           id="XMLID_1307_"
           style="fill:url(#XMLID_21_)"
           d="M 8.5,14.5 4,22 h 16 l 4,-7.5 z" />
        <linearGradient
           gradientUnits="userSpaceOnUse"
           id="XMLID_22_"
           x1="0.19029351"
           x2="11.877793"
           y1="14.485435"
           y2="9.4854355">
          <stop
             offset="0"
             style="stop-color:#FFFFFF;stop-opacity:0.2"
             id="stop1089" />
          <stop
             offset="1"
             style="stop-color:#FFFFFF;stop-opacity:0"
             id="stop1091" />
        </linearGradient>
        <path
           id="XMLID_1305_"
           style="fill:url(#XMLID_22_)"
           d="M 12.039781,8.891717 8,2 0,14.5 4,22 Z" />
        <linearGradient
           gradientUnits="userSpaceOnUse"
           id="SVGID_3_"
           x1="2.7436175"
           x2="22.457069"
           y1="8.616293"
           y2="17.808826">
          <stop
             offset="0"
             style="stop-color:#FFFFFF;stop-opacity:0.2"
             id="stop1095" />
          <stop
             offset="1"
             style="stop-color:#FFFFFF;stop-opacity:0"
             id="stop1097" />
        </linearGradient>
        <path
           d="M 16,2 H 8 L 0,14.5 4,22 h 16 l 4,-7.5 z M 8.6000366,14.5 12.039795,8.8917236 15.32721,14.5 Z"
           fill="url(#SVGID_3_)"
           id="path1100"
           style="fill:url(#SVGID_3_)" />
      </g>
      <circle
         opacity="0.1"
         cx="169.81076"
         cy="143.51808"
         r="13.902234"
         fill="#586bb2"
         id="circle1233"
         style="stroke-width:0.662011" />
      <path
         d="m 175.26189,147.51902 c -2.3661,-2.20542 -2.49559,-5.9242 -0.29023,-8.2903 0.32306,-0.34596 0.30333,-0.88875 -0.0426,-1.21009 -0.0213,-0.0197 -0.0443,-0.0394 -0.0672,-0.0574 -0.0197,-0.0213 -0.0394,-0.0426 -0.0607,-0.064 -0.34597,-0.32306 -0.88869,-0.30334 -1.21009,0.0426 -2.20536,2.3661 -5.92421,2.49558 -8.2903,0.29023 -0.34597,-0.32306 -0.88875,-0.30334 -1.21009,0.0426 -0.005,0.007 -0.01,0.0115 -0.0148,0.018 -0.005,0.005 -0.0115,0.01 -0.0164,0.0164 -0.323,0.34596 -0.30334,0.88868 0.0426,1.21009 2.36609,2.20542 2.49565,5.9242 0.29023,8.29029 -0.323,0.34597 -0.30334,0.88875 0.0426,1.21009 0.0213,0.0197 0.0443,0.0394 0.0673,0.0574 0.0197,0.0213 0.0393,0.0426 0.0606,0.064 0.34597,0.32306 0.88875,0.30333 1.21009,-0.0426 2.20542,-2.3661 5.92427,-2.49559 8.2903,-0.29023 0.34603,0.32306 0.88875,0.30334 1.21015,-0.0426 0.005,-0.007 0.01,-0.0114 0.0147,-0.018 0.005,-0.005 0.0115,-0.01 0.0164,-0.0164 0.32141,-0.34431 0.30333,-0.88709 -0.0426,-1.21009 z m -5.61922,-1.67906 c -0.47228,-1.00513 -1.26093,-1.83483 -2.23985,-2.35623 0.99368,-0.49194 1.80862,-1.29535 2.3136,-2.28413 0.47228,1.00513 1.26093,1.83483 2.23985,2.35629 -0.99368,0.49188 -1.80862,1.29536 -2.3136,2.28407 z"
         fill="url(#paint0_linear)"
         id="path1235"
         style="fill:url(#paint0_linear);stroke-width:0.662011" />
      <path
         id="path1883"
         style="color:#000000;font-style:normal;font-variant:normal;font-weight:normal;font-stretch:normal;font-size:medium;line-height:normal;font-family:sans-serif;font-variant-ligatures:normal;font-variant-position:normal;font-variant-caps:normal;font-variant-numeric:normal;font-variant-alternates:normal;font-variant-east-asian:normal;font-feature-settings:normal;font-variation-settings:normal;text-indent:0;text-align:start;text-decoration:none;text-decoration-line:none;text-decoration-style:solid;text-decoration-color:#000000;letter-spacing:normal;word-spacing:normal;text-transform:none;writing-mode:lr-tb;direction:ltr;text-orientation:mixed;dominant-baseline:auto;baseline-shift:baseline;text-anchor:start;white-space:normal;shape-padding:0;shape-margin:0;inline-size:0;clip-rule:nonzero;display:inline;overflow:visible;visibility:visible;opacity:1;isolation:auto;mix-blend-mode:normal;color-interpolation:sRGB;color-interpolation-filters:linearRGB;solid-color:#000000;solid-opacity:1;vector-effect:none;fill:#a0a0a0;fill-opacity:1;fill-rule:nonzero;stroke:none;stroke-width:1.5875;stroke-linecap:butt;stroke-linejoin:miter;stroke-miterlimit:4;stroke-dasharray:none;stroke-dashoffset:0;stroke-opacity:1;color-rendering:auto;image-rendering:auto;shape-rendering:auto;text-rendering:auto;enable-background:accumulate;stop-color:#000000;stop-opacity:1"
         d="m 137.77291,138.07293 -3.70313,4.73408 h 15.12104 v -1.5875 h -11.86336 l 1.69499,-2.16835 z m -3.70313,6.15828 v 1.5875 h 11.86491 l -1.69499,2.16834 1.24954,0.97617 3.70158,-4.73201 z" />
    </g>
  </g>
</svg>
