<svg width="160" height="160" viewBox="0 0 160 160" fill="none" xmlns="http://www.w3.org/2000/svg">
<rect width="160" height="160" rx="80" fill="#F1EAFF"/>
<g clip-path="url(#clip0)">
<path d="M117.548 123.142L99.1512 117.01C98.7111 116.862 98.2501 116.786 97.7857 116.785H63.2144C62.75 116.786 62.2889 116.862 61.8488 117.01L43.4524 123.142C29.4386 127.798 19.9866 140.911 20 155.678C20 158.065 21.9348 160 24.3215 160H136.678C139.065 160 141 158.065 141 155.678C141.013 140.911 131.561 127.798 117.548 123.142Z" fill="#CDC1E6"/>
<path d="M80.5 39C66.18 39 54.5714 50.6086 54.5714 64.9286V82.2143C54.5856 96.5285 66.1859 108.129 80.5 108.143C94.8141 108.129 106.414 96.5285 106.429 82.2143V64.9286C106.429 50.6086 94.8199 39 80.5 39Z" fill="#CDC1E6"/>
</g>
<defs>
<clipPath id="clip0">
<rect width="121" height="121" fill="white" transform="translate(20 39)"/>
</clipPath>
</defs>
</svg>
